<svg xmlns="http://www.w3.org/2000/svg" width="36" height="78" viewBox="0 0 36 78">
    <g fill="none" fill-rule="evenodd">
        <path fill="#0C7B95" fill-opacity=".5" d="M0 .114C20.137 1.646 36 18.47 36 39S20.137 76.354 0 77.886V.114z"/>
        <path fill="#FCFCFC" d="M28.272 30.527c-.38 0-.747.156-1.014.423l-7.255 7.236a1.48 1.48 0 0 0-.412 1.013c0 .379.156.746.412 1.002l7.255 7.248c.267.267.635.423 1.014.423a1.4 1.4 0 0 0 1.003-.423l.835-.835a1.396 1.396 0 0 0 0-2.004l-5.404-5.41 5.404-5.411c.268-.256.424-.624.424-1.002 0-.379-.156-.746-.424-1.013l-.835-.835a1.436 1.436 0 0 0-1.003-.412z"/>
    </g>
</svg>
