<svg xmlns="http://www.w3.org/2000/svg" width="36" height="78" viewBox="0 0 36 78">
    <g fill="none" fill-rule="evenodd">
        <path fill="#0C7B95" fill-opacity=".5" d="M36 77.886C15.863 76.354 0 59.53 0 39S15.863 1.646 36 .114v77.772z"/>
        <path fill="#FCFCFC" d="M7.728 47.473c.38 0 .747-.156 1.014-.423l7.255-7.236a1.48 1.48 0 0 0 .412-1.013c0-.379-.156-.746-.412-1.002L8.742 30.55a1.444 1.444 0 0 0-1.014-.423 1.4 1.4 0 0 0-1.003.423l-.835.835a1.396 1.396 0 0 0 0 2.004l5.404 5.41-5.404 5.411a1.396 1.396 0 0 0-.424 1.002c0 .379.156.746.424 1.013l.835.835c.257.256.624.412 1.003.412z"/>
    </g>
</svg>
