<?xml version="1.0" encoding="UTF-8"?>
<svg width="50px" height="50px" viewBox="0 0 50 50" version="1.1" xmlns="http://www.w3.org/2000/svg" xmlns:xlink="http://www.w3.org/1999/xlink">
    <!-- Generator: Sketch 45.2 (43514) - http://www.bohemiancoding.com/sketch -->
    <title>exit</title>
    <desc>Created with Sketch.</desc>
    <defs></defs>
    <g id="Page-1" stroke="none" stroke-width="1" fill="none" fill-rule="evenodd">
        <g id="exit">
            <g id="Group" transform="translate(1.000000, 1.000000)">
                <circle id="Oval" stroke="#88C441" stroke-width="2" fill="#FFFFFF" cx="24" cy="24" r="24"></circle>
                <path d="M36,18.5151515 C36,18.1363636 35.8451613,17.7575758 35.5664516,17.4848485 L33.4606452,15.4242424 C33.1819355,15.1515152 32.7948387,15 32.4077419,15 C32.0206452,15 31.6335484,15.1515152 31.3548387,15.4242424 L21.1974194,25.3787879 L16.6451613,20.9090909 C16.3664516,20.6363636 15.9793548,20.4848485 15.5922581,20.4848485 C15.2051613,20.4848485 14.8180645,20.6363636 14.5393548,20.9090909 L12.4335484,22.969697 C12.1548387,23.2424242 12,23.6212121 12,24 C12,24.3787879 12.1548387,24.7575758 12.4335484,25.030303 L18.0387097,30.5151515 L20.1445161,32.5757576 C20.4232258,32.8484848 20.8103226,33 21.1974194,33 C21.5845161,33 21.9716129,32.8484848 22.2503226,32.5757576 L24.356129,30.5151515 L35.5664516,19.5454545 C35.8451613,19.2727273 36,18.8939394 36,18.5151515 L36,18.5151515 Z" id="Icons/Check" fill="#88C441"></path>
            </g>
        </g>
    </g>
</svg>