<?xml version="1.0" encoding="UTF-8"?>
<svg width="50px" height="50px" viewBox="0 0 50 50" version="1.1" xmlns="http://www.w3.org/2000/svg" xmlns:xlink="http://www.w3.org/1999/xlink">
    <!-- Generator: Sketch 45.2 (43514) - http://www.bohemiancoding.com/sketch -->
    <title>warning</title>
    <desc>Created with Sketch.</desc>
    <defs>
        <path d="M47.6153149,41.953125 C48.0427436,42.8125043 48.1139806,43.5156223 47.8290282,44.0625 C47.4728376,44.6875031 46.9741783,45 46.3330354,45 L1.66696464,45 C1.02582166,45 0.527162379,44.6875031 0.170971837,44.0625 C-0.113980598,43.5156223 -0.0427435576,42.8125043 0.384685094,41.953125 L22.5040072,1.0546875 C22.8601977,0.351558984 23.358857,0 24,0 C24.641143,0 25.1398023,0.351558984 25.4959928,1.0546875 L47.6153149,41.953125 Z" id="path-1"></path>
    </defs>
    <g id="Page-1" stroke="none" stroke-width="1" fill="none" fill-rule="evenodd">
        <g id="warning">
            <g id="Group" transform="translate(1.000000, 2.000000)">
                <mask id="mask-2" fill="white">
                    <use xlink:href="#path-1"></use>
                </mask>
                <use id="-copy-5" stroke="#FFC200" stroke-width="2" fill="#FFFFFF" xlink:href="#path-1"></use>
                <g id="Group-2" mask="url(#mask-2)" fill="#FFC200">
                    <g transform="translate(20.160000, 11.520000)">
                        <path d="M7.62947368,24.5497589 C7.62947368,26.6717419 6.01517566,28.2947368 3.84006042,28.2947368 C1.66494518,28.2947368 0.0505263158,26.6717419 0.0505263158,24.5497589 L0.0505263158,24.4613786 C0.0505263158,22.3494194 1.66494518,20.7157895 3.84006042,20.7157895 C6.01517566,20.7157895 7.62947368,22.3393956 7.62947368,24.4613786 L7.62947368,24.5497589 Z" id="Path-Copy-3"></path>
                        <path d="M7.61531347,2.56690606 L5.7884476,17.6856207 C5.66617797,18.7745653 4.90361092,19.4526316 3.8399005,19.4526316 C2.77619007,19.4526316 2.01350534,18.7654173 1.89123572,17.6856207 L0.0649582392,2.55820432 C-0.0577821054,1.38893596 0.610523184,0.505263158 1.75931632,0.505263158 L5.91118794,0.505263158 C7.05951036,0.51441114 7.7375831,1.39774926 7.61531347,2.56690606 Z" id="Path-Copy-4"></path>
                    </g>
                </g>
            </g>
        </g>
    </g>
</svg>