<?xml version="1.0" encoding="UTF-8"?>
<svg width="17px" height="19px" viewBox="0 0 17 19" version="1.1" xmlns="http://www.w3.org/2000/svg" xmlns:xlink="http://www.w3.org/1999/xlink">
    <!-- Generator: Sketch 47 (45396) - http://www.bohemiancoding.com/sketch -->
    <title>ballot style generation copy 3</title>
    <desc>Created with Sketch.</desc>
    <defs></defs>
    <g id="Design-from-template" stroke="none" stroke-width="1" fill="none" fill-rule="evenodd">
        <g id="9.EA.-Des-temp.1" transform="translate(-34.000000, -455.000000)">
            <g id="instruction-template-copy" transform="translate(34.000000, 456.000000)">
                <g id="ballot-style-generation" transform="translate(1.000000, 0.000000)">
                    <path d="M13.9965469,0.0422732874 L1.00327088,-0.000226359127 L1.00327088,-0.000226359127 C0.450989082,-0.0020328151 0.00181180531,0.444215618 5.3493357e-06,0.996497414 C1.78311451e-06,0.997587703 3.44858863e-13,0.998677997 3.44835271e-13,0.999768292 L1.88375084e-14,15.9993276 L-2.77555756e-15,15.9993276 C-1.44805797e-14,16.5516124 0.44771525,16.9993276 1,16.9993276 L14,16.9993276 L14,16.9997489 C14.5522847,16.9997489 15,16.5520337 15,15.9997489 C15,15.9996085 15,15.999468 14.9999999,15.9993276 L14.993276,1.04184657 L14.993276,1.04184657 C14.9930438,0.49100323 14.5473874,0.0440750288 13.9965469,0.0422732874 Z" id="82-copy" stroke="#4A4A4A"></path>
                    <rect id="Rectangle-5" fill="#4A4A4A" x="2" y="2" width="3" height="13"></rect>
                    <rect id="Rectangle-5-Copy" fill="#4A4A4A" x="6" y="2" width="3" height="13"></rect>
                    <rect id="Rectangle-5-Copy-2" fill="#4A4A4A" x="10" y="2" width="3" height="13"></rect>
                </g>
            </g>
        </g>
    </g>
</svg>