<?xml version="1.0" encoding="UTF-8"?>
<svg width="12px" height="7px" viewBox="0 0 12 7" version="1.1" xmlns="http://www.w3.org/2000/svg" xmlns:xlink="http://www.w3.org/1999/xlink">
    <!-- Generator: Sketch 46.2 (44496) - http://www.bohemiancoding.com/sketch -->
    <title>xhdpi/Icons/Chevron up</title>
    <desc>Created with Sketch.</desc>
    <defs></defs>
    <g id="Symbols" stroke="none" stroke-width="1" fill="none" fill-rule="evenodd">
        <g id="@Stage_SysAdmin/open" transform="translate(-53.000000, -13.000000)" fill="#0C7B95">
            <g id="Icons/Chevron-up" transform="translate(53.000000, 13.000000)">
                <path d="M10.8854296,4.70313061 L6.23047618,0.252929989 C6.05860097,0.0957032391 5.82227257,0 5.57878269,0 C5.33529282,0 5.09896441,0.0957032391 4.93425067,0.252929989 L0.272135741,4.70313061 C0.100260536,4.8671933 0,5.09277951 0,5.32520166 C0,5.55762381 0.100260536,5.78321002 0.272135741,5.94043677 L0.809245756,6.45313269 C0.973959494,6.61719539 1.2102879,6.71289863 1.45377777,6.71289863 C1.69726765,6.71289863 1.93359606,6.61719539 2.09830979,6.45313269 L5.57878269,3.13769905 L9.05925559,6.45313269 C9.22396933,6.61719539 9.46029774,6.71289863 9.70378761,6.71289863 C9.94727748,6.71289863 10.1836059,6.61719539 10.3554811,6.45313269 L10.8925911,5.94043677 C11.0573048,5.78321002 11.1575654,5.55762381 11.1575654,5.32520166 C11.1575654,5.09277951 11.0573048,4.8671933 10.8854296,4.70313061 Z"></path>
            </g>
        </g>
    </g>
</svg>