<?xml version="1.0" encoding="UTF-8"?>
<svg width="10px" height="7px" viewBox="0 0 10 7" version="1.1" xmlns="http://www.w3.org/2000/svg" xmlns:xlink="http://www.w3.org/1999/xlink">
    <!-- Generator: Sketch 46.2 (44496) - http://www.bohemiancoding.com/sketch -->
    <title>xhdpi/@Icons/Chevron down_change event</title>
    <desc>Created with Sketch.</desc>
    <defs></defs>
    <g id="Symbols" stroke="none" stroke-width="1" fill="none" fill-rule="evenodd">
        <g id="Header_electionofficer" transform="translate(-483.000000, -28.000000)" fill="#BBBDBF">
            <g id="@Icons/Chevron-up" transform="translate(488.500000, 31.911215) rotate(180.000000) translate(-488.500000, -31.911215) translate(484.000000, 29.000000)">
                <path d="M9.25056123,5.05730483 C9.25056123,4.85063578 9.16804734,4.65004524 9.02659497,4.5041612 L5.19559316,0.54705678 C5.05414078,0.407251247 4.85964377,0.322152228 4.6592529,0.322152228 C4.45886204,0.322152228 4.26436503,0.407251247 4.1288065,0.54705678 L0.291910842,4.5041612 C0.150458467,4.65004524 0.0679445819,4.85063578 0.0679445819,5.05730483 C0.0679445819,5.26397388 0.150458467,5.46456443 0.291910842,5.60436996 L0.733949512,6.06025757 C0.869508037,6.2061416 1.06400505,6.29124062 1.26439592,6.29124062 C1.46478678,6.29124062 1.6592838,6.2061416 1.79484232,6.06025757 L4.6592529,3.11218438 L7.52366349,6.06025757 C7.65922201,6.2061416 7.85371903,6.29124062 8.05410989,6.29124062 C8.25450076,6.29124062 8.44899777,6.2061416 8.59045015,6.06025757 L9.03248882,5.60436996 C9.16804734,5.46456443 9.25056123,5.26397388 9.25056123,5.05730483 L9.25056123,5.05730483 Z" id="Icons/Chevron-up"></path>
            </g>
        </g>
    </g>
</svg>