<?xml version="1.0" encoding="UTF-8"?>
<svg width="6px" height="10px" viewBox="0 0 6 10" version="1.1" xmlns="http://www.w3.org/2000/svg" xmlns:xlink="http://www.w3.org/1999/xlink">
    <!-- Generator: Sketch 46.2 (44496) - http://www.bohemiancoding.com/sketch -->
    <title>xhdpi/Icons/Chevron up</title>
    <desc>Created with Sketch.</desc>
    <defs></defs>
    <g id="Symbols" stroke="none" stroke-width="1" fill="none" fill-rule="evenodd">
        <g id="@Elements/back-to-dashboard_Neg" transform="translate(-10.000000, -8.000000)" fill="#0C7B95">
            <path d="M13.5489466,8.2282063 L10.190859,12.1317352 C10.0722169,12.2758655 10,12.4740447 10,12.6782292 C10,12.8824138 10.0722169,13.080593 10.190859,13.2187179 L13.5489466,17.1282522 C13.6727471,17.2723825 13.8429727,17.3564585 14.0183567,17.3564585 C14.1937407,17.3564585 14.3639663,17.2723825 14.4826084,17.1282522 L14.8694849,16.677845 C14.9932853,16.5397201 15.0655023,16.341541 15.0655023,16.1373564 C15.0655023,15.9331718 14.9932853,15.7349926 14.8694849,15.5968678 L12.3676838,12.6782292 L14.8694849,9.75959072 C14.9932853,9.62146585 15.0655023,9.42328669 15.0655023,9.2191021 C15.0655023,9.01491751 14.9932853,8.81673835 14.8694849,8.67260806 L14.4826084,8.22220088 C14.3639663,8.08407601 14.1937407,8 14.0183567,8" id="Icons/Chevron-up"></path>
        </g>
    </g>
</svg>