<?xml version="1.0" encoding="UTF-8"?>
<svg width="14px" height="17px" viewBox="0 0 14 17" version="1.1" xmlns="http://www.w3.org/2000/svg" xmlns:xlink="http://www.w3.org/1999/xlink">
    <!-- Generator: Sketch 46.2 (44496) - http://www.bohemiancoding.com/sketch -->
    <title>xhdpi/digital asistant</title>
    <desc>Created with Sketch.</desc>
    <defs></defs>
    <g id="Symbols" stroke="none" stroke-width="1" fill="none" fill-rule="evenodd">
        <g id="header_2" transform="translate(-1333.000000, -24.000000)" fill="#464859">
            <path d="M1340.01923,40.6 C1339.56971,40.6 1339.1863,40.4347372 1338.86899,40.1042067 C1338.55168,39.7736762 1338.39303,39.3836561 1338.39303,38.9341346 L1341.64543,38.9341346 C1341.64543,39.3836561 1341.48678,39.7736762 1341.16947,40.1042067 C1340.85216,40.4347372 1340.46875,40.6 1340.01923,40.6 Z M1345.3738,35.6420673 L1347,37.3079327 L1347,38.1408654 L1333.03846,38.1408654 L1333.03846,37.3079327 L1334.66466,35.6420673 L1334.66466,31.1204327 C1334.66466,29.877638 1335.05468,28.7736827 1335.83474,27.8085337 C1336.61479,26.8433846 1337.59975,26.2153861 1338.78966,25.9245192 L1338.78966,25.3295673 C1338.78966,24.9858156 1338.90204,24.6949531 1339.1268,24.4569712 C1339.35156,24.2189892 1339.64904,24.1 1340.01923,24.1 C1340.38942,24.1 1340.6869,24.2189892 1340.91166,24.4569712 C1341.13642,24.6949531 1341.2488,24.9858156 1341.2488,25.3295673 L1341.2488,25.9245192 C1342.43871,26.2153861 1343.42367,26.8433846 1344.20373,27.8085337 C1344.98378,28.7736827 1345.3738,29.877638 1345.3738,31.1204327 L1345.3738,35.6420673 Z" id="digital-asistant"></path>
        </g>
    </g>
</svg>