<?xml version="1.0" encoding="UTF-8"?>
<svg width="12px" height="12px" viewBox="0 0 12 12" version="1.1" xmlns="http://www.w3.org/2000/svg" xmlns:xlink="http://www.w3.org/1999/xlink">
    <!-- Generator: Sketch 48.1 (47250) - http://www.bohemiancoding.com/sketch -->
    <title>Group</title>
    <desc>Created with Sketch.</desc>
    <defs></defs>
    <g id="Info-icon" stroke="none" stroke-width="1" fill="none" fill-rule="evenodd">
        <g id="Group">
            <circle id="Oval" fill="#03576B" cx="6" cy="6" r="6"></circle>
            <g id="Icons/Info" transform="translate(3.252026, 0.971977)" fill="#FFFFFF">
                <path d="M3.40802947,0.539761499 C3.67137321,0.539761499 3.87436429,0.615850438 4.01700882,0.768030599 C4.15965334,0.920210759 4.23097453,1.11466027 4.23097453,1.35138496 C4.23097453,1.63320008 4.12399275,1.88119365 3.91002596,2.09537314 C3.69605918,2.30955262 3.43546251,2.41664076 3.12822816,2.41664076 C2.86488442,2.41664076 2.66189334,2.34336993 2.51924881,2.19682607 C2.37660429,2.05028221 2.31076934,1.84737838 2.321742,1.58810847 C2.321742,1.32883857 2.41775129,1.08929932 2.60977277,0.869483532 C2.80179424,0.649667744 3.06787715,0.539761499 3.40802947,0.539761499 Z M1.71276265,8.99417258 C1.16412987,8.99417258 1.01600124,8.49254921 1.26837232,7.48928741 L1.76213936,5.341867 C1.83894795,5.02623407 1.83894795,4.86841998 1.76213936,4.86841998 C1.69630342,4.86841998 1.5481748,4.91914593 1.31774903,5.02059937 C1.08732326,5.12205281 0.889818419,5.22914095 0.725228585,5.341867 L0.511262869,4.96987291 C1.00503237,4.53024133 1.52348258,4.17515962 2.06662903,3.90461711 C2.60977548,3.6340746 3.02398702,3.49880538 3.30927607,3.49880538 C3.73720964,3.49880538 3.83596206,3.95533901 3.60553629,4.86841998 L3.02947475,7.11729332 C2.9416935,7.47801667 2.95815224,7.65837563 3.07885145,7.65837563 C3.32024988,7.65837563 3.64393836,7.4892891 4.04992662,7.15111097 L4.29681014,7.48928741 C3.8359586,7.9740094 3.35591212,8.34599977 2.85665629,8.60526967 C2.35740045,8.86453958 1.97610639,8.99417258 1.71276265,8.99417258 Z"></path>
            </g>
        </g>
    </g>
</svg>