<?xml version="1.0" encoding="UTF-8"?>
<svg width="13px" height="15px" viewBox="0 0 13 15" version="1.1" xmlns="http://www.w3.org/2000/svg" xmlns:xlink="http://www.w3.org/1999/xlink">
    <!-- Generator: Sketch 46.2 (44496) - http://www.bohemiancoding.com/sketch -->
    <title>xhdpi/lock</title>
    <desc>Created with Sketch.</desc>
    <defs></defs>
    <g id="Symbols" stroke="none" stroke-width="1" fill="none" fill-rule="evenodd">
        <g id="@Task_Pol-Sub/blocked" transform="translate(-230.000000, -18.000000)" fill="#738A8F">
            <g id="task/active-copy">
                <path d="M231.0875,32.2999998 C230.899999,32.2999998 230.738542,32.2322922 230.603125,32.0968748 C230.467708,31.9614575 230.4,31.8000008 230.4,31.6124998 L230.4,24.9874998 C230.4,24.7999989 230.467708,24.6385422 230.603125,24.5031248 C230.738542,24.3677075 230.899999,24.2999998 231.0875,24.2999998 L231.18125,24.2999998 L231.775,24.2999998 L231.775,23.3312498 C231.775,21.8937426 232.222912,20.695838 233.11875,19.7374998 C234.014588,18.7791617 235.108327,18.2999998 236.4,18.2999998 C237.691673,18.2999998 238.785412,18.7791617 239.68125,19.7374998 C240.577088,20.695838 241.025,21.8937426 241.025,23.3312498 L241.025,24.2999998 L241.7125,24.2999998 C241.900001,24.2999998 242.061458,24.3677075 242.196875,24.5031248 C242.332292,24.6385422 242.4,24.7999989 242.4,24.9874998 L242.4,31.6124998 C242.4,31.8000008 242.332292,31.9614575 242.196875,32.0968748 C242.061458,32.2322922 241.900001,32.2999998 241.7125,32.2999998 L231.0875,32.2999998 Z M233.43125,23.3312498 L233.43125,24.2999998 L233.9625,24.2999998 L238.80625,24.2999998 L239.36875,24.2999998 L239.36875,23.3312498 C239.36875,22.289578 239.077086,21.456253 238.49375,20.8312498 L238.49375,20.7999998 C237.931247,20.1958301 237.233337,19.8937498 236.4,19.8937498 C235.566662,19.8937498 234.868753,20.1958301 234.30625,20.7999998 L234.30625,20.8312498 C233.722914,21.456253 233.43125,22.289578 233.43125,23.3312498 L233.43125,23.3312498 Z" id="lock"></path>
            </g>
        </g>
    </g>
</svg>