<?xml version="1.0" encoding="UTF-8"?>
<svg width="21px" height="21px" viewBox="0 0 21 21" version="1.1" xmlns="http://www.w3.org/2000/svg" xmlns:xlink="http://www.w3.org/1999/xlink">
    <!-- Generator: Sketch 46.2 (44496) - http://www.bohemiancoding.com/sketch -->
    <title>xhdpi/move to_mouseover</title>
    <desc>Created with Sketch.</desc>
    <defs></defs>
    <g id="Symbols" stroke="none" stroke-width="1" fill="none" fill-rule="evenodd">
        <g id="move-to-icon-mouseover" fill="#7B8485">
            <g id="move-to_mouseover">
                <g id="Group" transform="translate(0.000000, 7.000000)">
                    <path d="M5.43090956,1.87645073 L5.43090956,1.0001057 C5.43090956,0.802467915 5.3723456,0.609261903 5.26261318,0.444885843 C4.95597372,-0.0144513828 4.33502693,-0.13823738 3.8756897,0.168402079 L3.8756897,0.168402079 L0.444885843,2.45870163 L0.444885843,2.45870163 C0.335429079,2.53177161 0.241472061,2.62572863 0.168402079,2.73518539 C-0.13823738,3.19452262 -0.0144513828,3.81546941 0.444885843,4.12210887 L0.444885843,4.12210887 L3.8756897,6.41240841 C4.04006576,6.52214084 4.23327177,6.58070479 4.43090956,6.58070479 C4.98319431,6.58070479 5.43090956,6.13298954 5.43090956,5.58070479 L5.43090956,5.58070479 L5.43090956,4.58961017 L6.70016046,4.58961017 C7.47051745,4.58961017 8.09501518,3.96511244 8.09501518,3.19475546 L8.09501518,3.19475546 C8.09501518,3.18177732 8.09482877,3.16879986 8.09445601,3.15582708 C8.07295646,2.40759628 7.44896673,1.81846419 6.70073592,1.83996374 L6.70073592,1.83996374 L5.43090956,1.87645073 Z" id="Combined-Shape"></path>
                    <path d="M17.4309096,1.87645073 L17.4309096,1.0001057 C17.4309096,0.802467915 17.3723456,0.609261903 17.2626132,0.444885843 C16.9559737,-0.0144513828 16.3350269,-0.13823738 15.8756897,0.168402079 L15.8756897,0.168402079 L12.4448858,2.45870163 L12.4448858,2.45870163 C12.3354291,2.53177161 12.2414721,2.62572863 12.1684021,2.73518539 C11.8617626,3.19452262 11.9855486,3.81546941 12.4448858,4.12210887 L12.4448858,4.12210887 L15.8756897,6.41240841 C16.0400658,6.52214084 16.2332718,6.58070479 16.4309096,6.58070479 C16.9831943,6.58070479 17.4309096,6.13298954 17.4309096,5.58070479 L17.4309096,5.58070479 L17.4309096,4.58961017 L18.7001605,4.58961017 C19.4705174,4.58961017 20.0950152,3.96511244 20.0950152,3.19475546 L20.0950152,3.19475546 C20.0950152,3.18177732 20.0948288,3.16879986 20.094456,3.15582708 C20.0729565,2.40759628 19.4489667,1.81846419 18.7007359,1.83996374 L18.7007359,1.83996374 L17.4309096,1.87645073 Z" id="Combined-Shape" transform="translate(16.047508, 3.290352) rotate(-180.000000) translate(-16.047508, -3.290352) "></path>
                </g>
                <g id="Group-2" transform="translate(7.000000, 0.000000)">
                    <path d="M4.67375437,14.6336059 L4.67375437,13.7572609 C4.67375437,13.5596231 4.61519041,13.3664171 4.50545799,13.202041 C4.19881853,12.7427038 3.57787174,12.6189178 3.11853451,12.9255573 L3.11853451,12.9255573 L-0.312269348,15.2158568 L-0.312269348,15.2158568 C-0.421726112,15.2889268 -0.515683129,15.3828838 -0.588753112,15.4923406 C-0.895392571,15.9516778 -0.771606574,16.5726246 -0.312269348,16.8792641 L-0.312269348,16.8792641 L3.11853451,19.1695636 C3.28291057,19.279296 3.47611658,19.33786 3.67375437,19.33786 C4.22603912,19.33786 4.67375437,18.8901447 4.67375437,18.33786 L4.67375437,18.33786 L4.67375437,17.3467654 L5.94300527,17.3467654 C6.71336226,17.3467654 7.33785998,16.7222676 7.33785998,15.9519106 L7.33785998,15.9519106 C7.33785998,15.9389325 7.33767358,15.9259551 7.33730082,15.9129823 C7.31580127,15.1647515 6.69181153,14.5756194 5.94358073,14.5971189 L5.94358073,14.5971189 L4.67375437,14.6336059 Z" id="Combined-Shape-Copy" transform="translate(3.290352, 16.047508) rotate(-90.000000) translate(-3.290352, -16.047508) "></path>
                    <path d="M4.67375437,2.63360592 L4.67375437,1.75726089 C4.67375437,1.55962311 4.61519041,1.36641709 4.50545799,1.20204103 C4.19881853,0.742703808 3.57787174,0.618917811 3.11853451,0.92555727 L3.11853451,0.92555727 L-0.312269348,3.21585682 L-0.312269348,3.21585682 C-0.421726112,3.2889268 -0.515683129,3.38288382 -0.588753112,3.49234058 C-0.895392571,3.95167781 -0.771606574,4.5726246 -0.312269348,4.87926406 L-0.312269348,4.87926406 L3.11853451,7.1695636 C3.28291057,7.27929603 3.47611658,7.33785998 3.67375437,7.33785998 C4.22603912,7.33785998 4.67375437,6.89014473 4.67375437,6.33785998 L4.67375437,6.33785998 L4.67375437,5.34676536 L5.94300527,5.34676536 C6.71336226,5.34676536 7.33785998,4.72226763 7.33785998,3.95191065 L7.33785998,3.95191065 C7.33785998,3.93893251 7.33767358,3.92595505 7.33730082,3.91298227 C7.31580127,3.16475147 6.69181153,2.57561938 5.94358073,2.59711893 L5.94358073,2.59711893 L4.67375437,2.63360592 Z" id="Combined-Shape-Copy" transform="translate(3.290352, 4.047508) rotate(-270.000000) translate(-3.290352, -4.047508) "></path>
                </g>
            </g>
        </g>
    </g>
</svg>