<?xml version="1.0" encoding="UTF-8"?>
<svg width="30px" height="30px" viewBox="0 0 30 30" version="1.1" xmlns="http://www.w3.org/2000/svg" xmlns:xlink="http://www.w3.org/1999/xlink">
    <!-- Generator: Sketch 46.2 (44496) - http://www.bohemiancoding.com/sketch -->
    <title>@1xstages locks</title>
    <desc>Created with Sketch.</desc>
    <defs></defs>
    <g id="Symbols" stroke="none" stroke-width="1" fill="none" fill-rule="evenodd">
        <g id="@Stage_Event/open">
            <g id="@Stage_Elect/closed">
                <g id="stages-locks">
                    <ellipse id="Oval-2-Copy-5" fill="#9B9B9B" cx="15.0028329" cy="15" rx="15.0028329" ry="15"></ellipse>
                    <path d="M10.0875,19.397281 C9.89999906,19.397281 9.73854234,19.3392458 9.603125,19.2231738 C9.46770766,19.1071018 9.4,18.9687103 9.4,18.8079953 L9.4,13.1294238 C9.4,12.9687087 9.46770766,12.8303173 9.603125,12.7142453 C9.73854234,12.5981732 9.89999906,12.5401381 10.0875,12.5401381 L10.18125,12.5401381 L10.775,12.5401381 L10.775,11.709781 C10.775,10.4776319 11.2229122,9.4508565 12.11875,8.62942382 C13.0145878,7.80799115 14.1083269,7.39728097 15.4,7.39728097 C16.6916731,7.39728097 17.7854122,7.80799115 18.68125,8.62942382 C19.5770878,9.4508565 20.025,10.4776319 20.025,11.709781 L20.025,12.5401381 L20.7125,12.5401381 C20.9000009,12.5401381 21.0614577,12.5981732 21.196875,12.7142453 C21.3322923,12.8303173 21.4,12.9687087 21.4,13.1294238 L21.4,18.8079953 C21.4,18.9687103 21.3322923,19.1071018 21.196875,19.2231738 C21.0614577,19.3392458 20.9000009,19.397281 20.7125,19.397281 L10.0875,19.397281 Z M12.43125,11.709781 L12.43125,12.5401381 L12.9625,12.5401381 L17.80625,12.5401381 L18.36875,12.5401381 L18.36875,11.709781 C18.36875,10.8169194 18.0770862,10.1026408 17.49375,9.56692382 L17.49375,9.54013811 C16.9312472,9.02227838 16.2333375,8.7633524 15.4,8.7633524 C14.5666625,8.7633524 13.8687528,9.02227838 13.30625,9.54013811 L13.30625,9.56692382 C12.7229137,10.1026408 12.43125,10.8169194 12.43125,11.709781 L12.43125,11.709781 Z" id="-copy" fill="#FFFFFF"></path>
                </g>
            </g>
        </g>
    </g>
</svg>