<?xml version="1.0" encoding="UTF-8"?>
<svg width="18px" height="18px" viewBox="0 0 18 18" version="1.1" xmlns="http://www.w3.org/2000/svg" xmlns:xlink="http://www.w3.org/1999/xlink">
    <!-- Generator: Sketch 46.2 (44496) - http://www.bohemiancoding.com/sketch -->
    <title>success small</title>
    <desc>Created with Sketch.</desc>
    <defs></defs>
    <g id="Page-1" stroke="none" stroke-width="1" fill="none" fill-rule="evenodd">
        <g id="success-small">
            <circle id="Oval" stroke="#88C441" fill="#88C441" cx="9" cy="9" r="8"></circle>
            <path d="M13,7.17171717 C13,7.04545455 12.9483871,6.91919192 12.8554839,6.82828283 L12.1535484,6.14141414 C12.0606452,6.05050505 11.9316129,6 11.8025806,6 C11.6735484,6 11.5445161,6.05050505 11.4516129,6.14141414 L8.06580645,9.45959596 L6.5483871,7.96969697 C6.45548387,7.87878788 6.32645161,7.82828283 6.19741935,7.82828283 C6.0683871,7.82828283 5.93935484,7.87878788 5.84645161,7.96969697 L5.14451613,8.65656566 C5.0516129,8.74747475 5,8.87373737 5,9 C5,9.12626263 5.0516129,9.25252525 5.14451613,9.34343434 L7.01290323,11.1717172 L7.71483871,11.8585859 C7.80774194,11.9494949 7.93677419,12 8.06580645,12 C8.19483871,12 8.32387097,11.9494949 8.41677419,11.8585859 L9.11870968,11.1717172 L12.8554839,7.51515152 C12.9483871,7.42424242 13,7.2979798 13,7.17171717 L13,7.17171717 Z" id="Icons/Check" fill="#FAFAFA"></path>
        </g>
    </g>
</svg>