<?xml version="1.0" encoding="UTF-8"?>
<svg width="34px" height="35px" viewBox="0 0 34 35" version="1.1" xmlns="http://www.w3.org/2000/svg" xmlns:xlink="http://www.w3.org/1999/xlink">
    <!-- Generator: Sketch 46.2 (44496) - http://www.bohemiancoding.com/sketch -->
    <title>xhdpi/system info</title>
    <desc>Created with Sketch.</desc>
    <defs></defs>
    <g id="Symbols" stroke="none" stroke-width="1" fill="none" fill-rule="evenodd">
        <g id="@Icon/admin_Security">
            <g id="system-info">
                <circle id="Oval-2" fill="#00A2C7" cx="17" cy="17.1993958" r="17"></circle>
                <g id="Group-3" transform="translate(6.000000, 9.000000)">
                    <g id="Group">
                        <rect id="Rectangle-13" stroke="#FFFFFF" x="0.5" y="0.5" width="21.3125" height="12.8125" rx="1"></rect>
                        <rect id="Rectangle-13" fill="#FFFFFF" x="8.925" y="13.8125" width="4.4625" height="1.0625"></rect>
                        <path d="M5.4625,14.875 L16.85,14.875 L16.85,14.875 C17.4022847,14.875 17.85,15.3227153 17.85,15.875 L17.85,17 L4.4625,17 L4.4625,15.875 L4.4625,15.875 C4.4625,15.3227153 4.91021525,14.875 5.4625,14.875 Z" id="Rectangle" fill="#FFFFFF"></path>
                    </g>
                    <g id="Group-2" transform="translate(7.000000, 3.000000)">
                        <path d="M3.77251663,1.98862124 C3.77251663,1.88252094 3.81014466,1.79122671 3.88540185,1.7147358 C3.96065904,1.63824488 4.05133642,1.6 4.15743672,1.6 C4.26353702,1.6 4.35359755,1.63824488 4.42762101,1.7147358 C4.50164448,1.79122671 4.53865565,1.88252094 4.53865565,1.98862124 C4.53865565,2.09718899 4.50164448,2.18971693 4.42762101,2.26620785 C4.35359755,2.34269876 4.26353702,2.38094364 4.15743672,2.38094364 C4.05133642,2.38094364 3.96065904,2.34269876 3.88540185,2.26620785 C3.81014466,2.18971693 3.77251663,2.09718899 3.77251663,1.98862124 Z M4.48683949,2.8466162 L4.48683949,4.95997553 C4.48683949,5.28321132 4.49177431,5.4867728 4.50164411,5.57066605 C4.5115139,5.65455931 4.54729137,5.71871202 4.60897759,5.7631261 C4.67066381,5.80754018 4.78046364,5.82974688 4.93838036,5.82974688 L5.01610461,5.82974688 L5.01610461,6 L3.38389539,6 L3.38389539,5.82974688 L3.50973465,5.82974688 C3.68492351,5.82974688 3.79904131,5.80445591 3.85209146,5.75387321 C3.90514161,5.70329051 3.93598425,5.64283892 3.94462033,5.57251663 C3.9532564,5.50219434 3.95757437,5.29801602 3.95757437,4.95997553 L3.95757437,4.04208916 C3.95757437,3.68677654 3.94091934,3.4696443 3.90760878,3.39068594 C3.87429822,3.31172758 3.82988481,3.26237934 3.77436721,3.24263975 C3.71884961,3.22290016 3.6220037,3.21303051 3.48382657,3.21303051 L3.38389539,3.21303051 L3.38389539,3.0427774 C3.82310128,2.99836332 4.1636041,2.9329769 4.40541409,2.8466162 L4.48683949,2.8466162 Z" id="i" fill="#FFFFFF"></path>
                        <circle id="Oval" stroke="#FFFFFF" stroke-width="0.5" cx="4" cy="4" r="4"></circle>
                    </g>
                </g>
            </g>
        </g>
    </g>
</svg>