<?xml version="1.0" encoding="UTF-8"?>
<svg width="16px" height="15px" viewBox="0 0 16 15" version="1.1" xmlns="http://www.w3.org/2000/svg" xmlns:xlink="http://www.w3.org/1999/xlink">
    <!-- Generator: Sketch 46.2 (44496) - http://www.bohemiancoding.com/sketch -->
    <title>xhdpi/Icons/User</title>
    <desc>Created with Sketch.</desc>
    <defs></defs>
    <g id="Symbols" stroke="none" stroke-width="1" fill="none" fill-rule="evenodd">
        <g id="Header_electionofficer" transform="translate(-1157.000000, -22.000000)" fill="#434A57">
            <g id="header_2">
                <g id="@Icons/User" transform="translate(1158.000000, 22.000000)">
                    <path d="M11.0844553,11.0467211 C13.1419987,11.8166804 14.1707549,12.4689972 14.1707549,13.0036911 L14.1707549,14.7040092 L7.0601626,14.7040092 L-0.0504297329,14.7040092 L-0.0504297329,13.0036911 C-0.0504297329,12.4689972 0.97832653,11.8166804 3.03586992,11.0467211 C3.98395364,10.6831293 4.62944776,10.314196 4.97237166,9.93991024 C5.31529556,9.5656245 5.48675494,9.0576729 5.48675494,8.41604019 C5.48675494,8.18077487 5.37581064,7.91877878 5.1539187,7.63004406 C4.93202677,7.34130935 4.77065324,6.95098864 4.66979327,6.45907024 C4.64962127,6.3307437 4.60423497,6.23450024 4.53363299,6.17033697 C4.46303101,6.1061737 4.39243009,6.06339882 4.32182811,6.04201107 C4.25122613,6.02062331 4.18062521,5.92972671 4.11002323,5.76931853 C4.03942125,5.60891036 3.99403495,5.37899542 3.97386295,5.07956683 C3.97386295,4.90846477 3.99907757,4.76944644 4.04950755,4.66250766 C4.09993754,4.55556887 4.14532384,4.49140656 4.18566783,4.47001881 L4.24618351,4.40585586 C4.16549553,3.87116194 4.10498046,3.40063835 4.06463647,2.99427097 C4.02429248,2.41680154 4.23105232,1.81795333 4.68492219,1.19770839 C5.13879205,0.577463443 5.93053094,0.267345622 7.0601626,0.267345622 C8.18979427,0.267345622 8.98657608,0.577463443 9.45053194,1.19770839 C9.91448781,1.81795333 10.1162047,2.41680154 10.0556887,2.99427097 L9.8741417,4.40585586 C10.0556896,4.49140688 10.1464623,4.71597496 10.1464623,5.07956683 C10.1262903,5.37899542 10.080904,5.60891036 10.010302,5.76931853 C9.9397,5.92972671 9.86909908,6.02062331 9.7984971,6.04201107 C9.72789512,6.06339882 9.6572942,6.1061737 9.58669222,6.17033697 C9.51609024,6.23450024 9.47070394,6.3307437 9.45053194,6.45907024 C9.36984397,6.9723764 9.21351336,7.36804396 8.98153543,7.6460848 C8.7495575,7.92412564 8.63357027,8.18077487 8.63357027,8.41604019 C8.63357027,9.0576729 8.81007257,9.5656245 9.16308247,9.93991024 C9.51609236,10.314196 10.1565436,10.6831293 11.0844553,11.0467211 L11.0844553,11.0467211 Z" id="user"></path>
                </g>
            </g>
        </g>
    </g>
</svg>