<?xml version="1.0" encoding="UTF-8"?>
<svg width="18px" height="18px" viewBox="0 0 18 18" version="1.1" xmlns="http://www.w3.org/2000/svg" xmlns:xlink="http://www.w3.org/1999/xlink">
    <!-- Generator: Sketch 46.2 (44496) - http://www.bohemiancoding.com/sketch -->
    <title>xhdpi/@Icons/User add</title>
    <desc>Created with Sketch.</desc>
    <defs></defs>
    <g id="Symbols" stroke="none" stroke-width="1" fill="none" fill-rule="evenodd">
        <g id="@Task_Pol-Pla_Cat/Setup" transform="translate(-226.000000, -17.000000)" fill="#797979">
            <g id="task/empty">
                <g id="@Icons/User-add" transform="translate(226.000000, 17.000000)">
                    <path d="M10.7199204,12.9136339 C12.794754,13.6892965 13.8321553,14.4285889 13.8321553,15.1315331 L13.8321553,17.0585604 L0,17.0585604 L0,13.3863009 C0.414966734,13.2166247 0.887560648,13.0590706 1.41779592,12.9136339 C2.50132017,12.5015631 3.24479108,12.0834387 3.64823096,11.6592482 C4.05167084,11.2350577 4.25338776,10.6593792 4.25338776,9.93219548 C4.25338776,9.66556144 4.12083093,9.37469231 3.85571329,9.05957936 C3.59059566,8.74446642 3.4119321,8.29604318 3.31971727,7.71429619 C3.29666357,7.56885945 3.16410674,7.41736511 2.92204281,7.25980863 C2.67997888,7.10225216 2.53589537,6.73260598 2.48978796,6.15085899 C2.48978796,5.95694333 2.51860466,5.79938922 2.57623893,5.67819193 C2.63387319,5.55699464 2.68574326,5.48427736 2.73185067,5.4600379 L2.80101145,5.38731989 C2.70879662,4.78133345 2.63963653,4.24807339 2.59352912,3.78752369 C2.524368,3.13305833 2.75490161,2.4543637 3.28513689,1.75141943 C3.81537216,1.04847516 4.73750662,0.697008295 6.05156795,0.697008295 C7.36562927,0.697008295 8.28776374,1.04847516 8.81799901,1.75141943 C9.34823428,2.4543637 9.59029458,3.13305833 9.54418716,3.78752369 L9.30212444,5.38731989 C9.50960781,5.48427773 9.61334794,5.73878821 9.61334794,6.15085899 C9.59029423,6.4902114 9.53842417,6.75078166 9.45773619,6.93257759 C9.37704821,7.11437352 9.29636145,7.21738967 9.21567347,7.24162913 C9.1349855,7.26586859 9.05429873,7.31434678 8.97361076,7.38706515 C8.89292278,7.45978352 8.84105272,7.56885945 8.81799901,7.71429619 C8.70273047,8.27180372 8.51254024,8.71416718 8.2474226,9.04139986 C7.98230497,9.36863254 7.84974814,9.66556144 7.84974814,9.93219548 C7.84974814,10.6593792 8.05722839,11.2350577 8.47219513,11.6592482 C8.88716186,12.0834387 9.63639611,12.5015631 10.7199204,12.9136339 L10.7199204,12.9136339 Z" id="Path"></path>
                    <polygon id="Path" points="14.696665 7.96880923 17.2901941 7.96880923 17.2901941 9.78675946 14.696665 9.78675946 14.696665 12.5136848 12.9676456 12.5136848 12.9676456 9.78675946 10.3741165 9.78675946 10.3741165 7.96880923 12.9676456 7.96880923 12.9676456 5.24188388 14.696665 5.24188388"></polygon>
                </g>
            </g>
        </g>
    </g>
</svg>