<?xml version="1.0" encoding="UTF-8"?>
<svg width="19px" height="14px" viewBox="0 0 19 14" version="1.1" xmlns="http://www.w3.org/2000/svg" xmlns:xlink="http://www.w3.org/1999/xlink">
    <!-- Generator: Sketch 46.2 (44496) - http://www.bohemiancoding.com/sketch -->
    <title>@1xIcons/Check green</title>
    <desc>Created with Sketch.</desc>
    <defs></defs>
    <g id="Symbols" stroke="none" stroke-width="1" fill="none" fill-rule="evenodd">
        <g id="@AdminTask/done" transform="translate(-227.000000, -18.000000)" fill="#85C140">
            <path d="M245.174203,20.6390437 C245.174203,20.354664 245.06059,20.0702843 244.856087,19.8655309 L243.310951,18.3185053 C243.106448,18.1137519 242.822416,18 242.538383,18 C242.254351,18 241.970319,18.1137519 241.765816,18.3185053 L234.312809,25.792004 L230.97259,22.4363235 C230.768086,22.2315701 230.484054,22.1178182 230.200022,22.1178182 C229.91599,22.1178182 229.631957,22.2315701 229.427454,22.4363235 L227.882318,23.9833491 C227.677815,24.1881025 227.564202,24.4724822 227.564202,24.7568619 C227.564202,25.0412416 227.677815,25.3256213 227.882318,25.5303747 L231.995106,29.6481929 L233.540241,31.1952185 C233.744744,31.3999719 234.028777,31.5137238 234.312809,31.5137238 C234.596841,31.5137238 234.880874,31.3999719 235.085377,31.1952185 L236.630512,29.6481929 L244.856087,21.4125565 C245.06059,21.2078031 245.174203,20.9234234 245.174203,20.6390437 L245.174203,20.6390437 Z" id="Icons/Check-green"></path>
        </g>
    </g>
</svg>