<?xml version="1.0" encoding="UTF-8"?>
<svg width="12px" height="7px" viewBox="0 0 12 7" version="1.1" xmlns="http://www.w3.org/2000/svg" xmlns:xlink="http://www.w3.org/1999/xlink">
    <!-- Generator: Sketch 46.2 (44496) - http://www.bohemiancoding.com/sketch -->
    <title>xhdpi/Icons/Chevron down</title>
    <desc>Created with Sketch.</desc>
    <defs></defs>
    <g id="Symbols" stroke="none" stroke-width="1" fill="none" fill-rule="evenodd">
        <g id="@Stage_SysAdmin/open-Copy" transform="translate(-53.000000, -13.000000)" fill="#0C7B95">
            <g id="Icons/Chevron-down" transform="translate(53.000000, 13.000000)">
                <path d="M12,5.55295316 C12,5.31059063 11.8921694,5.07535642 11.7073171,4.90427699 L6.70089859,0.263747454 C6.51604621,0.099796334 6.2618742,0 6,0 C5.7381258,0 5.48395379,0.099796334 5.30680359,0.263747454 L0.292682927,4.90427699 C0.107830552,5.07535642 0,5.31059063 0,5.55295316 C0,5.79531568 0.107830552,6.0305499 0.292682927,6.19450102 L0.870346598,6.72912424 C1.04749679,6.90020367 1.30166881,7 1.563543,7 C1.8254172,7 2.07958922,6.90020367 2.25673941,6.72912424 L6,3.27189409 L9.74326059,6.72912424 C9.92041078,6.90020367 10.1745828,7 10.436457,7 C10.6983312,7 10.9525032,6.90020367 11.1373556,6.72912424 L11.7150193,6.19450102 C11.8921694,6.0305499 12,5.79531568 12,5.55295316 L12,5.55295316 Z" id="Icons/Chevron-up" transform="translate(6.000000, 3.500000) rotate(-180.000000) translate(-6.000000, -3.500000) "></path>
            </g>
        </g>
    </g>
</svg>