<?xml version="1.0" encoding="UTF-8"?>
<svg width="18px" height="18px" viewBox="0 0 18 18" version="1.1" xmlns="http://www.w3.org/2000/svg" xmlns:xlink="http://www.w3.org/1999/xlink">
    <!-- Generator: Sketch 46.2 (44496) - http://www.bohemiancoding.com/sketch -->
    <title>error small</title>
    <desc>Created with Sketch.</desc>
    <defs></defs>
    <g id="Page-1" stroke="none" stroke-width="1" fill="none" fill-rule="evenodd">
        <g id="error-small">
            <circle id="Oval" stroke="#ED2224" fill="#ED2224" cx="9" cy="9" r="8"></circle>
            <path d="M10.3157895,12.5242218 C10.3157895,13.2610215 9.75526933,13.8245614 9.00002098,13.8245614 C8.24477263,13.8245614 7.68421053,13.2610215 7.68421053,12.5242218 L7.68421053,12.4935342 C7.68421053,11.7602151 8.24477263,11.1929825 9.00002098,11.1929825 C9.75526933,11.1929825 10.3157895,11.7567346 10.3157895,12.4935342 L10.3157895,12.5242218 Z" id="Path-Copy-3" fill="#FAFAFA"></path>
            <path d="M10.3108727,4.89128683 L9.6765443,10.1408405 C9.63408957,10.5189463 9.36930935,10.754386 8.99996545,10.754386 C8.63062155,10.754386 8.36580047,10.5157699 8.32334573,10.1408405 L7.68922161,4.88826539 C7.64660344,4.48226943 7.87865388,4.1754386 8.27754039,4.1754386 L9.71916248,4.1754386 C10.1178855,4.17861498 10.3533275,4.4853296 10.3108727,4.89128683 Z" id="Path-Copy-4" fill="#FAFAFA"></path>
        </g>
    </g>
</svg>