<?xml version="1.0" encoding="UTF-8"?>
<svg width="20px" height="16px" viewBox="0 0 20 16" version="1.1" xmlns="http://www.w3.org/2000/svg" xmlns:xlink="http://www.w3.org/1999/xlink">
    <!-- Generator: Sketch 47 (45396) - http://www.bohemiancoding.com/sketch -->
    <title>ballots templates</title>
    <desc>Created with Sketch.</desc>
    <defs></defs>
    <g id="Footer-templates" stroke="none" stroke-width="1" fill="none" fill-rule="evenodd">
        <g id="14.EA.-F-temp.3" transform="translate(-34.000000, -287.000000)">
            <g id="ballots-templates-inactive" transform="translate(34.000000, 287.000000)">
                <g id="ballots-templates">
                    <g id="Group-4">
                        <g id="Group-3">
                            <path d="M5.9654531,0.5 L0.5,11.5731209 L0.5,12.4736842 C0.5,12.7498266 0.723857625,12.9736842 1,12.9736842 L8.26315789,12.9736842 C8.53930027,12.9736842 8.76315789,12.7498266 8.76315789,12.4736842 L8.76315789,1 C8.76315789,0.723857625 8.53930027,0.5 8.26315789,0.5 L5.9654531,0.5 Z" id="Rectangle-10" stroke="#A2A3AC" transform="translate(4.631579, 6.736842) rotate(-180.000000) translate(-4.631579, -6.736842) "></path>
                            <rect id="Rectangle-2" fill="#A2A3AC" x="1.54385965" y="1.49707602" width="2.31578947" height="1.49707602"></rect>
                            <rect id="Rectangle-3" fill="#A2A3AC" x="1.54385965" y="3.74269006" width="2.31578947" height="1"></rect>
                            <rect id="Rectangle-3-Copy" fill="#A2A3AC" x="1.54385965" y="5.23976608" width="2.31578947" height="1"></rect>
                            <rect id="Rectangle-3-Copy-2" fill="#A2A3AC" x="1.54385965" y="6.73684211" width="2.31578947" height="1"></rect>
                            <rect id="Rectangle-3-Copy-3" fill="#A2A3AC" x="1.54385965" y="8.23391813" width="2.31578947" height="3.74269006"></rect>
                            <rect id="Rectangle-2" fill="#A2A3AC" x="4.75438596" y="4.02339181" width="3.0877193" height="2.99415205"></rect>
                            <path d="M3.5,3 L3.5,15 C3.5,15.2761424 3.72385763,15.5 4,15.5 L12,15.5 C12.2761424,15.5 12.5,15.2761424 12.5,15 L12.5,3 C12.5,2.72385763 12.2761424,2.5 12,2.5 L4,2.5 C3.72385763,2.5 3.5,2.72385763 3.5,3 Z" id="Rectangle-10" stroke="#A2A3AC" transform="translate(8.000000, 9.000000) rotate(-180.000000) translate(-8.000000, -9.000000) "></path>
                            <rect id="Rectangle-3" fill="#A2A3AC" x="8.61403509" y="4.02339181" width="2.31578947" height="1"></rect>
                            <rect id="Rectangle-3-Copy" fill="#A2A3AC" x="4.75438596" y="7.76608187" width="3.0877193" height="1"></rect>
                            <rect id="Rectangle-3-Copy-2" fill="#A2A3AC" x="4.75438596" y="9.26315789" width="2.70175439" height="1"></rect>
                            <rect id="Rectangle-3-Copy-6" fill="#A2A3AC" x="4.75438596" y="12.2573099" width="3.0877193" height="1"></rect>
                            <rect id="Rectangle-3-Copy-5" fill="#A2A3AC" x="4.75438596" y="10.7602339" width="2.70175439" height="1"></rect>
                            <rect id="Rectangle-3-Copy-7" fill="#A2A3AC" x="4.75438596" y="13.754386" width="5.40350877" height="1"></rect>
                            <rect id="Rectangle" stroke="#A2A3AC" x="7.92105263" y="5.39473684" width="11.1052632" height="7.73684211" rx="0.200000003"></rect>
                            <rect id="Rectangle-11" fill="#A2A3AC" x="9.19838057" y="6.64327485" width="2.33198381" height="5.23976608"></rect>
                            <rect id="Rectangle-4" fill="#A2A3AC" x="12.3076923" y="6.64327485" width="3.88663968" height="1"></rect>
                            <rect id="Rectangle-4-Copy-3" fill="#A2A3AC" x="12.3076923" y="11.1345029" width="3.88663968" height="1"></rect>
                            <rect id="Rectangle-4-Copy" fill="#A2A3AC" x="12.3076923" y="8.14035088" width="5.44129555" height="1"></rect>
                            <rect id="Rectangle-4-Copy-2" fill="#A2A3AC" x="12.3076923" y="9.6374269" width="3.10931174" height="1"></rect>
                        </g>
                    </g>
                </g>
            </g>
        </g>
    </g>
</svg>