<?xml version="1.0" encoding="UTF-8"?>
<svg width="31px" height="31px" viewBox="0 0 31 31" version="1.1" xmlns="http://www.w3.org/2000/svg" xmlns:xlink="http://www.w3.org/1999/xlink">
    <!-- Generator: Sketch 46.2 (44496) - http://www.bohemiancoding.com/sketch -->
    <title>xhdpi/Help</title>
    <desc>Created with Sketch.</desc>
    <defs></defs>
    <g id="Symbols" stroke="none" stroke-width="1" fill="none" fill-rule="evenodd">
        <g id="Header_electionofficer" transform="translate(-1391.000000, -16.000000)" fill="#464859">
            <g id="header_2">
                <path d="M1406.95893,46.9589254 C1398.67465,46.9589254 1391.95893,40.2431967 1391.95893,31.9589254 C1391.95893,23.6746542 1398.67465,16.9589254 1406.95893,16.9589254 C1415.2432,16.9589254 1421.95893,23.6746542 1421.95893,31.9589254 C1421.95893,40.2431967 1415.2432,46.9589254 1406.95893,46.9589254 Z M1411.561,24.8343132 C1410.47472,24.0488719 1409.03617,23.6561572 1407.24528,23.6561572 C1405.89478,23.6561572 1404.79384,23.9366677 1403.94244,24.4976972 C1402.65066,25.31119 1402.00477,26.8259468 1402.00477,29.0420133 L1405.39569,29.0420133 C1405.39569,28.1443661 1405.49845,27.5412685 1405.70396,27.2327023 C1406.14434,26.5594669 1406.7315,26.2228542 1407.46547,26.2228542 C1408.2288,26.2228542 1408.83065,26.4753137 1409.27103,26.9802403 C1409.59397,27.3729609 1409.75544,27.8778799 1409.75544,28.4950123 C1409.75544,28.9157844 1409.57929,29.3646013 1409.22699,29.8414763 C1409.10955,30.0097852 1408.88937,30.2201681 1408.56642,30.4726313 L1408.082,30.7671703 C1407.75906,30.9635307 1407.39208,31.2300157 1406.98106,31.5666334 C1406.57003,31.903251 1406.26177,32.2118126 1406.05626,32.4923274 C1405.6746,33.0533569 1405.45441,33.9790416 1405.39569,35.2694094 C1405.39569,35.4096668 1405.49845,35.4797944 1405.70396,35.4797944 L1408.43431,35.4797944 C1408.63982,35.4797944 1408.74257,35.3956413 1408.74257,35.2273324 C1408.74257,34.6663029 1408.78661,34.2595627 1408.87469,34.0070994 C1409.02148,33.5582758 1409.31506,33.1655611 1409.75544,32.8289434 L1410.68024,32.2398654 C1411.59036,31.5385785 1412.17753,31.0336596 1412.44176,30.7250933 C1412.99957,29.995755 1413.27848,29.1963 1413.27848,28.3267043 C1413.27848,26.8399762 1412.70599,25.6758574 1411.561,24.8343132 Z M1407.02509,37.1628745 C1406.43792,37.134823 1405.94617,37.3031293 1405.54982,37.6677985 C1405.15348,38.0324676 1404.94063,38.5093355 1404.91127,39.0984165 C1404.88192,39.6874975 1405.05807,40.1573526 1405.43973,40.507996 C1405.82139,40.8586395 1406.30581,41.0479841 1406.89298,41.0760355 C1407.48016,41.104087 1407.97925,40.9427935 1408.39027,40.59215 C1408.80129,40.2415066 1409.02148,39.7716515 1409.05084,39.1825705 C1409.0802,38.5934895 1408.90405,38.1166216 1408.52238,37.7519525 C1408.14072,37.3872833 1407.64163,37.1909259 1407.02509,37.1628745 Z" id="Help"></path>
            </g>
        </g>
    </g>
</svg>