<?xml version="1.0" encoding="UTF-8"?>
<svg width="13px" height="12px" viewBox="0 0 13 12" version="1.1" xmlns="http://www.w3.org/2000/svg" xmlns:xlink="http://www.w3.org/1999/xlink">
    <!-- Generator: Sketch 46.2 (44496) - http://www.bohemiancoding.com/sketch -->
    <title>xhdpi/Info_Gray Icon</title>
    <desc>Created with Sketch.</desc>
    <defs></defs>
    <g id="Symbols" stroke="none" stroke-width="1" fill="none" fill-rule="evenodd">
        <g id="@Stage/Tabulation-setup" transform="translate(-18.000000, -97.000000)">
            <g id="Group-4-Copy-6">
                <g id="Info_Gray-Icon" transform="translate(18.000000, 97.000000)">
                    <ellipse id="Oval" fill="#738A8F" cx="6.5" cy="6" rx="6.5" ry="6"></ellipse>
                    <g id="Icons/Info" transform="translate(3.523028, 0.971977)" fill="#FFFFFF">
                        <path d="M3.69203193,0.539761499 C3.97732098,0.539761499 4.19722799,0.615850438 4.35175955,0.768030599 C4.50629112,0.920210759 4.58355574,1.11466027 4.58355574,1.35138496 C4.58355574,1.63320008 4.46765881,1.88119365 4.23586146,2.09537314 C4.00406411,2.30955262 3.72175106,2.41664076 3.38891383,2.41664076 C3.10362479,2.41664076 2.88371778,2.34336993 2.72918621,2.19682607 C2.57465465,2.05028221 2.50333345,1.84737838 2.5152205,1.58810847 C2.5152205,1.32883857 2.61923057,1.08929932 2.82725383,0.869483532 C3.0352771,0.649667744 3.32353358,0.539761499 3.69203193,0.539761499 Z M1.85549288,8.99417258 C1.2611407,8.99417258 1.10066801,8.49254921 1.37407002,7.48928741 L1.9089843,5.341867 C1.99219361,5.02623407 1.99219361,4.86841998 1.9089843,4.86841998 C1.83766204,4.86841998 1.67718936,4.91914593 1.42756145,5.02059937 C1.17793353,5.12205281 0.963969954,5.22914095 0.7856643,5.341867 L0.553868108,4.96987291 C1.08878507,4.53024133 1.65043946,4.17515962 2.23884812,3.90461711 C2.82725677,3.6340746 3.27598594,3.49880538 3.58504907,3.49880538 C4.04864377,3.49880538 4.15562556,3.95533901 3.90599765,4.86841998 L3.28193098,7.11729332 C3.18683463,7.47801667 3.20466493,7.65837563 3.33542241,7.65837563 C3.59693737,7.65837563 3.94759989,7.4892891 4.38742051,7.15111097 L4.65487765,7.48928741 C4.15562182,7.9740094 3.63557146,8.34599977 3.09471098,8.60526967 C2.55385049,8.86453958 2.14078192,8.99417258 1.85549288,8.99417258 Z"></path>
                    </g>
                </g>
            </g>
        </g>
    </g>
</svg>