<?xml version="1.0" encoding="UTF-8"?>
<svg width="6px" height="12px" viewBox="0 0 6 12" version="1.1" xmlns="http://www.w3.org/2000/svg" xmlns:xlink="http://www.w3.org/1999/xlink">
    <!-- Generator: Sketch 46.2 (44496) - http://www.bohemiancoding.com/sketch -->
    <title>xhdpi/Icons/Info_card</title>
    <desc>Created with Sketch.</desc>
    <defs></defs>
    <g id="Symbols" stroke="none" stroke-width="1" fill="none" fill-rule="evenodd">
        <g id="@Card_Nom/Empty" transform="translate(-15.000000, -62.000000)" fill="#4A4A4A">
            <g id="Group-4-Copy-4">
                <path d="M19.079613,62 C19.4504887,62 19.7363678,62.1071586 19.9372589,62.321479 C20.1381499,62.5357994 20.2385939,62.8096491 20.2385939,63.1430364 C20.2385939,63.539926 20.0879279,63.8891836 19.7865914,64.1908197 C19.4852548,64.4924558 19.1182478,64.6432716 18.6855594,64.6432716 C18.3146837,64.6432716 18.0288046,64.5400819 17.8279135,64.3336993 C17.6270225,64.1273167 17.5343049,63.8415604 17.5497581,63.476422 C17.5497581,63.1112835 17.6849712,62.7739324 17.9554014,62.4643585 C18.2258317,62.1547846 18.6005651,62 19.079613,62 Z M16.6921122,73.9066289 C15.9194544,73.9066289 15.7108399,73.200176 16.0662625,71.787249 L16.7616511,68.7629652 C16.8698232,68.3184489 16.8698232,68.096194 16.7616511,68.096194 C16.6689321,68.096194 16.4603176,68.1676331 16.1358013,68.3105133 C15.811285,68.4533936 15.5331324,68.6042094 15.301335,68.7629652 L15,68.2390736 C15.6953921,67.6199258 16.4255428,67.1198524 17.190474,66.7388383 C17.9554053,66.3578243 18.5387532,66.1673201 18.9405353,66.1673201 C19.5432084,66.1673201 19.6822847,66.8102717 19.3577684,68.096194 L18.5464817,71.2633573 C18.4228565,71.771376 18.4460359,72.0253816 18.6160206,72.0253816 C18.95599,72.0253816 19.4118513,71.7872514 19.9836181,71.3109838 L20.3313124,71.787249 C19.6822798,72.4698991 19.0062144,72.9937856 18.3030957,73.358924 C17.5999771,73.7240625 17.062988,73.9066289 16.6921122,73.9066289 Z" id="Icons/Info_card"></path>
            </g>
        </g>
    </g>
</svg>