<?xml version="1.0" encoding="UTF-8"?>
<svg width="34px" height="35px" viewBox="0 0 34 35" version="1.1" xmlns="http://www.w3.org/2000/svg" xmlns:xlink="http://www.w3.org/1999/xlink">
    <!-- Generator: Sketch 46.2 (44496) - http://www.bohemiancoding.com/sketch -->
    <title>xhdpi/languages</title>
    <desc>Created with Sketch.</desc>
    <defs></defs>
    <g id="Symbols" stroke="none" stroke-width="1" fill="none" fill-rule="evenodd">
        <g id="@Icon/admin_languages">
            <g id="languages">
                <circle id="Oval-2" fill="#00A2C7" cx="17" cy="17.1993958" r="17"></circle>
                <g transform="translate(7.000000, 7.000000)" fill-rule="nonzero" fill="#FFFFFF">
                    <path d="M13.1666261,15.2089796 L14.5822779,10.7531973 L14.6127221,10.7531973 L15.9827077,15.2089796 L13.1666261,15.2089796 Z M13.394957,7.76 L9.285,19.9028571 L11.690086,19.9028571 L12.5425215,17.1987755 L16.6068123,17.1987755 L17.4288037,19.9028571 L19.91,19.9028571 L15.8457092,7.76 L13.394957,7.76 Z" id="A"></path>
                    <path d="M6.4462239,8.65252307 C7.4878272,7.58511539 8.19423357,6.43002798 8.6200343,5.26197424 C8.8523181,4.62477487 8.96845306,4.08731315 9.01013473,3.69316002 L10,3.69316002 L10,1.47726401 L6.1092453,1.47726401 L6.1092453,0 L4.16386795,0 L4.16386795,1.47726401 L0.273113256,1.47726401 L0.273113256,3.69316002 L7.0355826,3.69316002 C6.99591038,3.87933872 6.92876492,4.12313847 6.82338655,4.41221174 C6.49489583,5.31332529 5.92699785,6.22836315 5.0515121,7.09969989 C4.96655411,7.18425526 4.87921147,7.26785951 4.78945569,7.35048472 C4.02400083,6.59720474 3.46773495,5.77215053 3.09045503,4.90282266 L1.34652618,5.88479645 C1.7667122,6.85298849 2.35048433,7.76660114 3.1129187,8.60318255 C2.22719809,9.14328371 1.1937043,9.61832268 0,10.016103 L0.546226513,12.1428571 C2.1935207,11.5939262 3.59234778,10.8989104 4.76008238,10.0793742 C5.85545915,10.8866368 7.18008761,11.5828762 8.75425151,12.137885 L9.32948041,10.0210752 C8.21717451,9.62890537 7.26101226,9.1682386 6.4462239,8.65252307 Z" id="Combined-Shape"></path>
                    <path d="M5.26785714,13.5714294 L5.26785714,14.8214294 L7.99107143,14.8214294 C8.08035759,14.8214294 8.125,14.8735122 8.125,14.9776794 L8.12250881,18.5714294 L7.05357143,18.5714294 L7.05357143,16.0714294 L5.26785714,16.0714294 L5.26785714,17.3214294 L3.125,15.4464294 L5.26785714,13.5714294 Z" id="" transform="translate(5.625000, 16.071429) rotate(-180.000000) translate(-5.625000, -16.071429) "></path>
                </g>
            </g>
        </g>
    </g>
</svg>