<?xml version="1.0" encoding="UTF-8"?>
<svg width="19px" height="19px" viewBox="0 0 19 19" version="1.1" xmlns="http://www.w3.org/2000/svg" xmlns:xlink="http://www.w3.org/1999/xlink">
    <!-- Generator: Sketch 46.2 (44496) - http://www.bohemiancoding.com/sketch -->
    <title>xhdpi/search</title>
    <desc>Created with Sketch.</desc>
    <defs></defs>
    <g id="Symbols" stroke="none" stroke-width="1" fill="none" fill-rule="evenodd">
        <g id="@Search_box/regular" transform="translate(-14.000000, -10.000000)" fill="#738A8F">
            <path d="M27.8541667,21.578125 L27.65625,21.9244792 L33,27.3177083 L31.3177083,29 L25.9739583,23.6067708 L25.6276042,23.8541667 C24.3081531,24.6788236 22.9392432,25.0911458 21.5208333,25.0911458 C19.4426979,25.0911458 17.6697122,24.3489658 16.2018229,22.8645833 C14.7339336,21.3802009 14,19.5989687 14,17.5208333 C14,15.4426979 14.7339336,13.6697122 16.2018229,12.2018229 C17.6697122,10.7339336 19.4426979,10 21.5208333,10 C23.5989687,10 25.3719545,10.7339336 26.8398438,12.2018229 C28.307733,13.6697122 29.0416667,15.4426979 29.0416667,17.5208333 C29.0416667,18.9722295 28.6458373,20.3246465 27.8541667,21.578125 Z M25.7265625,13.3151042 C24.5720428,12.1605845 23.1701471,11.5833333 21.5208333,11.5833333 C19.8715195,11.5833333 18.4696238,12.1605845 17.3151042,13.3151042 C16.1605845,14.4696238 15.5833333,15.8715195 15.5833333,17.5208333 C15.5833333,19.1701471 16.1605845,20.5720428 17.3151042,21.7265625 C18.4696238,22.8810822 19.8715195,23.4583333 21.5208333,23.4583333 C23.1701471,23.4583333 24.5720428,22.8810822 25.7265625,21.7265625 C26.9140684,20.5390566 27.5078125,19.1371609 27.5078125,17.5208333 C27.5078125,15.9045058 26.9140684,14.5026101 25.7265625,13.3151042 Z" id="search"></path>
        </g>
    </g>
</svg>