<?xml version="1.0" encoding="UTF-8"?>
<svg width="34px" height="35px" viewBox="0 0 34 35" version="1.1" xmlns="http://www.w3.org/2000/svg" xmlns:xlink="http://www.w3.org/1999/xlink">
    <!-- Generator: Sketch 46.2 (44496) - http://www.bohemiancoding.com/sketch -->
    <title>xhdpi/Group</title>
    <desc>Created with Sketch.</desc>
    <defs></defs>
    <g id="Symbols" stroke="none" stroke-width="1" fill="none" fill-rule="evenodd">
        <g id="@Icon/admin_Users">
            <g id="Group">
                <circle id="Oval-2" fill="#00A2C7" cx="17" cy="17.1993958" r="17"></circle>
                <path d="M24.6237205,21.2530069 L24.6237205,22.976276 L17.2787207,22.976276 L9.93372092,22.976276 L9.93372092,21.2530069 C9.93372092,20.7110957 10.9963911,20.049974 13.1217634,19.2696218 C14.1011016,18.9011222 14.767875,18.5272091 15.1221038,18.1478712 C15.4763325,17.7685334 15.6534442,17.2537254 15.6534442,16.603432 C15.6534442,16.364991 15.5388425,16.0994585 15.3096357,15.8068265 C15.0804289,15.5141944 14.9137355,15.1186052 14.8095506,14.6200469 C14.7887136,14.4899882 14.7418311,14.3924456 14.6689016,14.3274163 C14.5959722,14.2623869 14.5230439,14.2190347 14.4501144,14.1973582 C14.377185,14.1756818 14.3042566,14.0835583 14.2313272,13.9209849 C14.1583977,13.7584115 14.1115152,13.5253932 14.0906783,13.2219229 C14.0906783,13.0485113 14.1167241,12.9076165 14.1688165,12.7992343 C14.220909,12.6908521 14.2677915,12.6258237 14.3094655,12.6041472 L14.3719761,12.5391182 C14.2886282,11.997207 14.2261182,11.5203323 14.1844442,11.1084798 C14.1427702,10.5232157 14.3563461,9.9162842 14.8251782,9.2876672 C15.2940103,8.65905019 16.1118497,8.3447464 17.2787207,8.3447464 C18.4455918,8.3447464 19.2686402,8.65905019 19.7478909,9.2876672 C20.2271415,9.9162842 20.4355082,10.5232157 20.3729972,11.1084798 L20.1854653,12.5391182 C20.3729982,12.625824 20.4667632,12.8534233 20.4667632,13.2219229 C20.4459262,13.5253932 20.3990437,13.7584115 20.3261142,13.9209849 C20.2531848,14.0835583 20.1802565,14.1756818 20.107327,14.1973582 C20.0343976,14.2190347 19.9614692,14.2623869 19.8885398,14.3274163 C19.8156103,14.3924456 19.7687278,14.4899882 19.7478909,14.6200469 C19.6645429,15.1402816 19.5030587,15.5412899 19.2634334,15.8230837 C19.0238081,16.1048776 18.9039973,16.364991 18.9039973,16.603432 C18.9039973,17.2537254 19.0863181,17.7685334 19.4509653,18.1478712 C19.8156125,18.5272091 20.4771768,18.9011222 21.435678,19.2696218 C23.5610503,20.049974 24.6237205,20.7110957 24.6237205,21.2530069 Z" id="user" stroke="#FFFFFF" fill="#FFFFFF"></path>
            </g>
        </g>
    </g>
</svg>