<?xml version="1.0" encoding="UTF-8"?>
<svg width="18px" height="18px" viewBox="0 0 18 18" version="1.1" xmlns="http://www.w3.org/2000/svg" xmlns:xlink="http://www.w3.org/1999/xlink">
    <!-- Generator: Sketch 46.2 (44496) - http://www.bohemiancoding.com/sketch -->
    <title>warning small</title>
    <desc>Created with Sketch.</desc>
    <defs>
        <path d="M16.8717716,15.984375 C17.0142479,16.2708348 17.0379935,16.5052074 16.9430094,16.6875 C16.8242792,16.8958344 16.6580594,17 16.4443451,17 L1.55565488,17 C1.34194055,17 1.17572079,16.8958344 1.05699061,16.6875 C0.962006467,16.5052074 0.985752147,16.2708348 1.12822836,15.984375 L8.50133573,2.3515625 C8.62006591,2.11718633 8.78628567,2 9,2 C9.21371433,2 9.37993409,2.11718633 9.49866427,2.3515625 L16.8717716,15.984375 Z" id="path-1"></path>
    </defs>
    <g id="Page-1" stroke="none" stroke-width="1" fill="none" fill-rule="evenodd">
        <g id="warning-small">
            <mask id="mask-2" fill="white">
                <use xlink:href="#path-1"></use>
            </mask>
            <use id="-copy-5" stroke="#FFC200" fill="#FFC200" xlink:href="#path-1"></use>
            <path d="M10.2631579,14.023253 C10.2631579,14.7305806 9.72505855,15.2715789 9.00002014,15.2715789 C8.27498173,15.2715789 7.73684211,14.7305806 7.73684211,14.023253 L7.73684211,13.9937929 C7.73684211,13.2898065 8.27498173,12.7452632 9.00002014,12.7452632 C9.72505855,12.7452632 10.2631579,13.2864652 10.2631579,13.9937929 L10.2631579,14.023253 Z" id="Path-Copy-3" fill="#FAFAFA" mask="url(#mask-2)"></path>
            <path d="M10.2584378,6.69563535 L9.64948253,11.7352069 C9.60872599,12.0981884 9.35453697,12.3242105 8.99996683,12.3242105 C8.64539669,12.3242105 8.39116845,12.0951391 8.35041191,11.7352069 L7.74165275,6.69273477 C7.7007393,6.30297865 7.92350773,6.00842105 8.30643877,6.00842105 L9.69039598,6.00842105 C10.0731701,6.01147038 10.2991944,6.30591642 10.2584378,6.69563535 Z" id="Path-Copy-4" fill="#FAFAFA" mask="url(#mask-2)"></path>
        </g>
    </g>
</svg>